<?xml version="1.0" encoding="UTF-8" standalone="no"?>
<svg width="48px" height="30px" viewBox="0 0 48 30" version="1.1" xmlns="http://www.w3.org/2000/svg" xmlns:xlink="http://www.w3.org/1999/xlink">
    <!-- Generator: Sketch 39.1 (31720) - http://www.bohemiancoding.com/sketch -->
    <title>app/games/wheelofdestiny/img/dpdn_theme_04</title>
    <desc>Created with Sketch.</desc>
    <defs></defs>
    <g id="wheelofdestiny" stroke="none" stroke-width="1" fill="none" fill-rule="evenodd">
        <g id="app/games/wheelofdestiny/img/dpdn_theme_04">
            <g id="Wheel" transform="translate(4.000000, -5.000000)">
                <path d="M20,20 L34.1421356,5.85786438 C37.8928632,9.60859195 40,14.6956702 40,20 L20,20 Z" id="Shape" fill="#A41700"></path>
                <path d="M20,20 L20,0 C25.3043298,-1.77635684e-15 30.3914081,2.10713681 34.1421356,5.85786438 L20,20 Z" id="Shape" fill="#B92300"></path>
                <path d="M20,20 L5.85786438,5.85786438 C9.60859195,2.10713681 14.6956702,1.0658141e-15 20,0 L20,20 Z" id="Shape" fill="#E88400"></path>
                <path d="M20,20 L0,20 C5.68434189e-15,14.6956702 2.10713681,9.60859195 5.85786438,5.85786438 L20,20 Z" id="Shape" fill="#FFA500"></path>
                <path d="M20,20 L5.85786438,34.1421356 C2.10713681,30.3914081 -2.27373675e-15,25.3043298 -2.27373675e-15,20 L20,20 Z" id="Shape" fill="#F78500"></path>
                <path d="M20,20 L20,40 C14.6956702,40 9.60859195,37.8928632 5.85786438,34.1421356 L20,20 Z" id="Shape" fill="#E86900"></path>
                <path d="M20,20 L34.1421356,34.1421356 C30.3914081,37.8928632 25.3043298,40 20,40 L20,20 Z" id="Shape" fill="#E34900"></path>
                <path d="M20,20 L40,20 C40,25.3043298 37.8928632,30.3914081 34.1421356,34.1421356 L20,20 Z" id="Shape" fill="#DB2900"></path>
            </g>
        </g>
    </g>
</svg>