<svg width="48" height="30" viewBox="0 0 48 30" xmlns="http://www.w3.org/2000/svg"><g clip-path="url(#a)" fill="none" fill-rule="evenodd" clip-rule="evenodd"><path d="M24 15L38.142.858A20 20 0 0 1 44 15H24z" fill="#2A638C"/><path d="M24 15V-5A20 20 0 0 1 38.142.858L24 15z" fill="#4D87B1"/><path d="M24 15L9.858.858A20 20 0 0 1 24-5v20z" fill="#2D734D"/><path d="M24 15H4A20 20 0 0 1 9.858.858L24 15z" fill="#45A170"/><path d="M24 15L9.858 29.142A20 20 0 0 1 4 15h20z" fill="#A11D03"/><path d="M24 15v20a20 20 0 0 1-14.142-5.858L24 15z" fill="#D24D25"/><path d="M24 15l14.142 14.142A20 20 0 0 1 24 35V15z" fill="#F2A336"/><path d="M24 15h20a20 20 0 0 1-5.858 14.142L24 15z" fill="#FECC53"/></g><defs><clipPath id="a"><path fill="#fff" d="M0 0H48V30H0z"/></clipPath></defs></svg>