<svg width="48" height="30" viewBox="0 0 48 30" xmlns="http://www.w3.org/2000/svg"><g clip-path="url(#a)" fill="none" fill-rule="evenodd" clip-rule="evenodd"><path d="M24 15L38.142.858A20 20 0 0 1 44 15H24z" fill="#32450C"/><path d="M24 15V-5A20 20 0 0 1 38.142.858L24 15z" fill="#CE3E1D"/><path d="M24 15L9.858.858A20 20 0 0 1 24-5v20z" fill="#AF2202"/><path d="M24 15H4A20 20 0 0 1 9.858.858L24 15z" fill="#EA651B"/><path d="M24 15L9.858 29.142A20 20 0 0 1 4 15h20z" fill="#C84D07"/><path d="M24 15v20a20 20 0 0 1-14.142-5.858L24 15z" fill="#D88000"/><path d="M24 15l14.142 14.142A20 20 0 0 1 24 35V15z" fill="#ECA82C"/><path d="M24 15h20a20 20 0 0 1-5.858 14.142L24 15z" fill="#717400"/></g><defs><clipPath id="a"><path fill="#fff" d="M0 0H48V30H0z"/></clipPath></defs></svg>