<svg width="83" height="101" viewBox="0 0 83 101" fill="none" xmlns="http://www.w3.org/2000/svg">
<path fill-rule="evenodd" clip-rule="evenodd" d="M16.2161 0.5H12.9806C11.3398 3.58279 9.04546 8.67164 6.87844 14.9195H14.1135C14.8539 9.38641 15.6035 4.34863 16.2161 0.5ZM3.49836 26.3427C4.15014 23.6777 4.87753 21.1045 5.6422 18.6648H13.6241C13.3037 21.1778 12.9914 23.7567 12.6996 26.3427H3.49836ZM2.64782 30.088C1.42137 35.9463 0.621094 42.1366 0.621094 48.2528C0.621094 55.531 1.75432 63.326 3.39039 70.7247H12.1747C11.4335 63.5214 10.9207 56.5304 10.9207 51.0619C10.9207 45.3083 11.4884 37.7936 12.2925 30.088H2.64782ZM6.35995 82.1479C5.63027 79.6924 4.92265 77.1182 4.26796 74.47H12.5778C12.8672 77.0509 13.1794 79.63 13.5015 82.1479H6.35995ZM7.51729 85.8933C9.48807 92.0347 11.5003 97.1805 12.9806 100.5H16.148C15.5146 96.5801 14.7451 91.4746 13.9934 85.8933H7.51729ZM19.1834 100.5H32.0041C31.6109 96.7628 31.1903 91.6397 30.8066 85.8933H17.0169C17.7766 91.5047 18.552 96.621 19.1834 100.5ZM35.0171 100.5H47.873C48.2666 96.826 48.6919 91.6886 49.0806 85.8933H33.8095C34.1983 91.6886 34.6235 96.826 35.0171 100.5ZM50.886 100.5H63.7068C64.3381 96.621 65.1135 91.5047 65.8732 85.8933H52.0835C51.6998 91.6397 51.2792 96.7628 50.886 100.5ZM66.7421 100.5H70.4713C72.0129 97.0431 74.1313 91.9466 76.179 85.8933H68.8968C68.1451 91.4746 67.3755 96.5801 66.7421 100.5ZM79.5591 74.47C78.8913 77.1239 78.1579 79.6959 77.3953 82.1479H69.3887C69.7108 79.63 70.023 77.0509 70.3124 74.47H79.5591ZM80.4431 70.7247C81.8712 64.2368 82.8308 57.385 82.8308 50.6873C82.8308 43.951 81.8601 36.8382 80.4184 30.088H70.5976C71.4017 37.7936 71.9694 45.3083 71.9694 51.0619C71.9694 56.5304 71.4566 63.5214 70.7155 70.7247H80.4431ZM77.4757 18.6648C78.211 21.1103 78.9178 23.6858 79.5631 26.3427H70.1905C69.8987 23.7567 69.5864 21.1778 69.266 18.6648H77.4757ZM76.296 14.9195C74.2122 8.59575 72.0422 3.45148 70.4713 0.5H66.674C67.2866 4.34863 68.0362 9.38641 68.7766 14.9195H76.296ZM63.6398 0.5H50.8294C51.2108 4.26654 51.6218 9.29862 52.0019 14.9195H65.7534C65.0054 9.35632 64.2503 4.30814 63.6398 0.5ZM47.8177 0.5H35.0725C34.6905 4.21756 34.2757 9.26047 33.8913 14.9195H48.9988C48.6144 9.26047 48.1996 4.21756 47.8177 0.5ZM32.0607 0.5C31.6793 4.26654 31.2683 9.29862 30.8882 14.9195H17.1367C17.8848 9.35632 18.6398 4.30814 19.2503 0.5H32.0607ZM68.9732 51.0619C68.9732 56.497 68.4529 63.5021 67.7036 70.7247H52.9262C53.2332 63.8157 53.4301 56.9189 53.4301 51.0619C53.4301 44.8298 53.2073 37.4485 52.8661 30.088H67.5852C68.3976 37.8138 68.9732 45.3447 68.9732 51.0619ZM67.2973 74.47H52.7492C52.619 77.0727 52.4753 79.6506 52.3228 82.1479H66.3678C66.6915 79.6312 67.0058 77.0516 67.2973 74.47ZM50.4338 51.0619C50.4338 56.9152 50.2354 63.8178 49.927 70.7247H32.9631C32.6547 63.8178 32.4563 56.9152 32.4563 51.0619C32.4563 44.8368 32.6808 37.4487 33.0235 30.088H49.8667C50.2094 37.4487 50.4338 44.8368 50.4338 51.0619ZM49.7492 74.47H33.1409C33.2718 77.0748 33.4161 79.6531 33.5692 82.1479H49.3209C49.474 79.6531 49.6183 77.0748 49.7492 74.47ZM29.46 51.0619C29.46 56.9189 29.6569 63.8157 29.964 70.7247H15.1866C14.4372 63.5021 13.917 56.497 13.917 51.0619C13.917 45.3447 14.4925 37.8138 15.3049 30.088H30.024C29.6829 37.4485 29.46 44.8298 29.46 51.0619ZM30.1409 74.47H15.5928C15.8844 77.0516 16.1986 79.6312 16.5224 82.1479H30.5673C30.4148 79.6506 30.2711 77.0727 30.1409 74.47ZM15.7149 26.3427H30.2077C30.3423 23.738 30.4897 21.1611 30.6451 18.6648H16.6449C16.323 21.1765 16.0088 23.7559 15.7149 26.3427ZM33.6472 18.6648C33.4912 21.1591 33.3432 23.7363 33.208 26.3427H49.6822C49.5469 23.7363 49.3989 21.1591 49.243 18.6648H33.6472ZM52.245 18.6648C52.4004 21.1611 52.5478 23.738 52.6824 26.3427H67.1752C66.8813 23.7559 66.5672 21.1765 66.2453 18.6648H52.245Z"/>
</svg>
