<svg viewBox="0 0 128 128" xmlns="http://www.w3.org/2000/svg">
  <path
    d="m117.812 99.25-21.3745-79.5c-.5625-2.4375-3-4.3125-5.8125-3.5625l-3 .9375c-1.125.1875-2.0625 1.125-3 2.625-2.625 1.3125-9.75 3.1875-12.75 3.375-1.5-.75-2.8125-1.125-3.9375-.75l-2.8125.75c-.5625.1875-.9375.375-1.125.5625v-1.6875c0-3.1875-2.8125-6-6-6h-12c-3.375 0-6 2.8125-6 6v12h24l18.9375 74.438c.5625 2.437 3 4.312 6 3.562l2.8125-.938c1.125-.187 2.25-1.124 3-2.624 2.625-1.313 9.75-3.188 12.75-3.376 1.5.75 2.812 1.126 3.938.75l3-.75c2.812-.75 3.937-3.562 3.374-5.812zm-25.312-1.3125-17.25-64.5 11.625-3.1875 17.25 64.5zm-82.5-9.9375h24v-48h-24zm18-72h-12c-3.375 0-6 2.8125-6 6v12h24v-12c0-3.1875-2.8125-6-6-6zm-18 90c0 3.375 2.625 6 6 6h12c3.1875 0 6-2.625 6-6v-12h-24zm30-18h24v-48h-24zm0 18c0 3.375 2.625 6 6 6h12c3.1875 0 6-2.625 6-6v-12h-24z" />
  </svg>