<svg width="148" height="22" viewBox="0 0 148 22" fill="none" xmlns="http://www.w3.org/2000/svg">
<path fill-rule="evenodd" clip-rule="evenodd" d="M147.831 0.25H0.548096V2.25H147.831V0.25ZM147.831 3.25H0.548096V18.25H147.831V3.25ZM147.831 19.25H0.548096V21.125H147.831V19.25ZM47.2634 14.5679C47.6074 14.936 48.1035 15.1199 48.7515 15.1199C49.3994 15.1199 49.8955 14.936 50.2395 14.5679C50.5835 14.2 50.7556 13.6799 50.7556 13.0081V8.59204C50.7556 7.91992 50.5835 7.3999 50.2395 7.03198C49.8955 6.66406 49.3994 6.47998 48.7515 6.47998C48.1035 6.47998 47.6074 6.66406 47.2634 7.03198C46.9194 7.3999 46.7476 7.91992 46.7476 8.59204V13.0081C46.7476 13.6799 46.9194 14.2 47.2634 14.5679ZM49.4355 13.092C49.4355 13.644 49.2075 13.9199 48.7515 13.9199C48.2954 13.9199 48.0674 13.644 48.0674 13.092V8.50806C48.0674 7.95605 48.2954 7.67993 48.7515 7.67993C49.2075 7.67993 49.4355 7.95605 49.4355 8.50806V13.092ZM43.9839 6.6001H41.9919V15H44.0679C44.7239 15 45.22 14.832 45.5559 14.4961C45.8999 14.1521 46.072 13.656 46.072 13.0081V12.2881C46.072 11.344 45.7439 10.76 45.0879 10.5359V10.512C45.2126 10.46 45.323 10.3938 45.4192 10.3135C45.5452 10.208 45.6467 10.0784 45.7239 9.92407C45.8679 9.6521 45.9399 9.30005 45.9399 8.86792V8.53198C45.9399 7.87598 45.7839 7.39209 45.4719 7.08008C45.1599 6.76001 44.6641 6.6001 43.9839 6.6001ZM44.416 9.81592C44.2878 9.9519 44.092 10.02 43.8279 10.02H43.312V7.80005H43.948C44.1799 7.80005 44.3479 7.86792 44.4519 8.00391C44.564 8.13989 44.6199 8.35986 44.6199 8.66406V9.13208C44.6199 9.28101 44.6052 9.40991 44.5757 9.51904C44.542 9.64429 44.4888 9.74316 44.416 9.81592ZM44.584 13.6199C44.4719 13.74 44.3 13.8 44.0679 13.8H43.312V11.22H43.8999C44.2039 11.22 44.4199 11.2959 44.5479 11.448C44.6838 11.592 44.752 11.856 44.752 12.24V12.9719C44.752 13.2759 44.696 13.4919 44.584 13.6199ZM52.6333 7.80005H51.2534V6.6001H55.3333V7.80005H53.9534V15H52.6333V7.80005ZM55.7417 7.80005H57.1216V15H58.4417V7.80005H59.8215V6.6001H55.7417V7.80005ZM60.4607 6.6001H61.7808V13.8H63.9526V15H60.4607V6.6001ZM68.1858 6.6001H64.5857V15H68.1858V13.8H65.9058V11.22H67.7178V10.02H65.9058V7.80005H68.1858V6.6001ZM68.9451 6.6001H70.9612C71.6172 6.6001 72.1091 6.77588 72.437 7.12793C72.7651 7.47998 72.929 7.99609 72.929 8.67603V12.9241C72.929 13.604 72.7651 14.1199 72.437 14.4719C72.1091 14.824 71.6172 15 70.9612 15H68.9451V6.6001ZM70.937 13.8C71.1531 13.8 71.3171 13.7361 71.429 13.6079C71.5491 13.48 71.6091 13.272 71.6091 12.9839V8.61597C71.6091 8.32788 71.5491 8.11987 71.429 7.99194C71.3171 7.86401 71.1531 7.80005 70.937 7.80005H70.2651V13.8H70.937ZM76.2681 10.2H73.6282V11.3999H76.2681V10.2ZM77.0544 6.6001H78.3745V15H77.0544V6.6001ZM81.019 6.6001H79.363V15H80.5391V8.86792H80.563L82.147 15H83.5029V6.6001H82.3271V11.6279H82.303L81.019 6.6001ZM84.2922 10.2H86.9321V11.3999H84.2922V10.2ZM89.7104 6.6001H87.7185V15H89.7944C90.4504 15 90.9465 14.832 91.2825 14.4961C91.6265 14.1521 91.7986 13.656 91.7986 13.0081V12.2881C91.7986 11.344 91.4705 10.76 90.8145 10.5359V10.512C90.9819 10.4424 91.1235 10.3469 91.2395 10.2258C91.3232 10.1387 91.3936 10.0381 91.4504 9.92407C91.5945 9.6521 91.6665 9.30005 91.6665 8.86792V8.53198C91.6665 7.87598 91.5105 7.39209 91.1985 7.08008C90.8865 6.76001 90.3906 6.6001 89.7104 6.6001ZM90.1426 9.81592C90.0144 9.9519 89.8186 10.02 89.5544 10.02H89.0386V7.80005H89.6746C89.9065 7.80005 90.0745 7.86792 90.1785 8.00391C90.2905 8.13989 90.3464 8.35986 90.3464 8.66406V9.13208C90.3464 9.4519 90.2786 9.67993 90.1426 9.81592ZM90.0186 13.7773C89.9514 13.7925 89.8767 13.8 89.7944 13.8H89.0386V11.22H89.6265C89.9304 11.22 90.1465 11.2959 90.2744 11.448C90.4104 11.592 90.4785 11.856 90.4785 12.24V12.9719C90.4785 13.2759 90.4226 13.4919 90.3105 13.6199C90.2383 13.6975 90.1409 13.75 90.0186 13.7773ZM94.478 15.1199C93.8301 15.1199 93.334 14.936 92.99 14.5679C92.646 14.2 92.4741 13.6799 92.4741 13.0081V8.59204C92.4741 7.91992 92.646 7.3999 92.99 7.03198C93.334 6.66406 93.8301 6.47998 94.478 6.47998C95.126 6.47998 95.6221 6.66406 95.9661 7.03198C96.3101 7.3999 96.4822 7.91992 96.4822 8.59204V13.0081C96.4822 13.6799 96.3101 14.2 95.9661 14.5679C95.6221 14.936 95.126 15.1199 94.478 15.1199ZM94.478 13.9199C94.9341 13.9199 95.1621 13.644 95.1621 13.092V8.50806C95.1621 7.95605 94.9341 7.67993 94.478 7.67993C94.022 7.67993 93.7939 7.95605 93.7939 8.50806V13.092C93.7939 13.644 94.022 13.9199 94.478 13.9199ZM99.0308 6.6001H97.3748V15H98.5508V8.86792H98.5747L100.159 15H101.515V6.6001H100.339V11.6279H100.315L99.0308 6.6001ZM102.496 6.6001H104.512C105.168 6.6001 105.66 6.77588 105.988 7.12793C106.316 7.47998 106.48 7.99609 106.48 8.67603V12.9241C106.48 13.604 106.316 14.1199 105.988 14.4719C105.66 14.824 105.168 15 104.512 15H102.496V6.6001ZM104.488 13.8C104.704 13.8 104.868 13.7361 104.98 13.6079C105.1 13.48 105.16 13.272 105.16 12.9839V8.61597C105.16 8.44043 105.138 8.29468 105.093 8.17871C105.064 8.10425 105.027 8.04199 104.98 7.99194C104.868 7.86401 104.704 7.80005 104.488 7.80005H103.816V13.8H104.488Z" fill="#0A4F42"/>
</svg>
