<svg width="42" height="99" viewBox="0 0 42 99" fill="none" xmlns="http://www.w3.org/2000/svg">
<path fill-rule="evenodd" clip-rule="evenodd" d="M11.875 25.5L13.3035 13.1194C13.3501 12.7152 13.2781 12.3063 13.0962 11.9424C12.9507 11.6515 12.875 11.3307 12.875 11.0055V3.5C12.875 1.84314 14.2183 0.5 15.875 0.5H26.875C28.5317 0.5 29.875 1.84314 29.875 3.5V11.0055C29.875 11.3307 29.7993 11.6515 29.6538 11.9424C29.4719 12.3063 29.3999 12.7152 29.4465 13.1194L30.875 25.5V32.3944C30.875 33.7173 31.5081 34.9603 32.5779 35.7384L38.9922 40.4034C40.8035 41.7207 41.875 43.8251 41.875 46.0646V91.5C41.875 95.366 38.741 98.5 34.875 98.5H7.875C4.00903 98.5 0.875 95.366 0.875 91.5V46.0646C0.875 43.8251 1.94653 41.7207 3.75781 40.4034L10.1721 35.7384C11.2419 34.9603 11.875 33.7173 11.875 32.3944V25.5ZM28.875 27.5V32.3944C28.875 34.3572 29.8142 36.2014 31.4016 37.3558L37.8159 42.0209C39.1096 42.9618 39.875 44.465 39.875 46.0646V50.5H2.875V46.0646C2.875 44.465 3.64038 42.9618 4.93408 42.0209L11.3484 37.3558C12.9358 36.2014 13.875 34.3572 13.875 32.3944V27.5H28.875ZM16.2461 2.5H18.5964L18.4697 3.07275C18.4067 3.35669 18.375 3.64673 18.375 3.93762V6H15.875V3.94531C15.875 3.43481 16.0051 2.93848 16.2461 2.5ZM39.875 91.5V86.5H2.875V91.5C2.875 94.2614 5.11353 96.5 7.875 96.5H34.875C37.6365 96.5 39.875 94.2614 39.875 91.5ZM15.875 7.5H18.375V11.5H15.875V7.5ZM16.1797 12.9297H18.4375L17.7031 19.2422L16.2188 25.4297H14.8359L16.1797 12.9297Z" />
</svg>
