<svg viewBox="0 0 128 128" xmlns="http://www.w3.org/2000/svg">
  <g fill="#000">
    <path
      d="m105.298 57.9809c-.116-.3128-.361-.5588-.675-.6744l-15.8483-5.8264 2.9183-17.2811c.0669-.3989-.0827-.8024-.3944-1.0608-.3117-.2573-.7344-.3298-1.1141-.1915l-16.6532 6.1177-8.4059-14.4829c-.2029-.3502-.5757-.5644-.9803-.5644h-.0012c-.4046 0-.7786.2165-.9803.5678l-8.3085 14.4228-16.4866-6.061c-.3785-.1406-.8024-.0669-1.114.1904-.3106.2572-.4613.6607-.3956 1.0585l2.873 17.2867-16.3562 6.0101c-.314.1156-.561.3638-.6755.6789-.1145.315-.0827.663.085.9531l10.2691 17.7299-4.5492 7.897c-.2017.3514-.2017.782.0012 1.1322.2028.3514.5768.5667.9814.5667h9.1245l9.8271 16.9668c.2754.475.85.685 1.3634.499.5157-.186.8251-.713.7344-1.252l-2.695-16.2138h32.7272l-2.7381 16.2098c-.0907.543.2187 1.072.7367 1.257.1246.044.2538.066.3808.066.3989 0 .7797-.211.9848-.574l9.6402-16.9588h9.4905c.4046 0 .7797-.2165.9818-.5678.203-.3513.201-.7831-.001-1.1345l-4.8013-8.2722 9.9733-17.544c.167-.2901.195-.638.081-.9508zm-16.1652-22.2338-2.5228 14.9362-8.0535-2.9614-3.8703-6.6685zm-3.9508 23.3909-4.8427-8.3447 5.8865 2.1646zm-9.9563-12.6401-7.6738-2.822 4.9753-1.828zm-11.0761-19.083 7.2216 12.4428-7.1049 2.6101-7.2522-2.6667zm-3.1688 16.2599-7.8619 2.8889 2.7472-4.7691zm-21.5651-7.9288 14.2925 5.2553-3.9066 6.7818-7.9027 2.9036zm2.8617 17.2165 5.7596-2.116-4.743 8.2326zm-16.8549 6.1925 14.688-5.3969 1.3985 8.4172-7.1491 12.4112zm16.6736 6.5439 3.0724 18.4835h-5.2496l-4.2466-7.3315zm-10.6477 18.4846 2.9172-5.0648 2.9331 5.0648zm15.8338 12.7115-6.0497-10.4459h4.3134zm.1836-12.7115-3.587-21.5786 7.4755-12.9767 12.912-4.7441 12.741 4.6852 7.5842 13.0673-3.6391 21.5481h-33.4866zm38.9062-18.4801 6.2583 10.7837-4.3747 7.6964h-5.0048zm-5.2371 31.0057 1.7328-10.26h4.0993zm15.963-12.5256h-6.2345l3.0849-5.4264zm-3.17-9.9778-6.9643-11.9998 1.428-8.4524 14.1964 5.219z" />
    <path
      d="m64 115c-28.1214 0-51-22.8786-51-51s22.8786-51 51-51 51 22.8786 51 51-22.8786 51-51 51zm0-99.7333c-26.8713 0-48.7333 21.862-48.7333 48.7333s21.862 48.733 48.7333 48.733 48.733-21.8617 48.733-48.733-21.8617-48.7333-48.733-48.7333z" />
  </g>
</svg>