<svg width="128" height="128" viewBox="0 0 128 128" fill="none" xmlns="http://www.w3.org/2000/svg">
<g clip-path="url(#clip0_222_2)">
<path d="M25.5 64V72.25C25.5 73.7969 24.125 75 22.75 75C21.2031 75 20 73.7969 20 72.25V64C20 39.7656 39.5938 20 64 20C77.75 20 90.125 26.3594 98.2031 36.3281C99.0625 37.5312 98.8906 39.25 97.6875 40.2812C96.4844 41.1406 94.7656 40.9688 93.9062 39.7656C86.8594 31.1719 76.0312 25.5 64 25.5C42.6875 25.5 25.5 42.8594 25.5 64ZM106.281 52.3125C107.312 56.0938 108 60.0469 108 64V72.25C108 73.7969 106.625 75 105.25 75C103.703 75 102.5 73.7969 102.5 72.25V64C102.5 60.5625 101.984 57.125 100.953 53.8594C100.609 52.3125 101.469 50.7656 103.016 50.4219C104.391 50.0781 105.938 50.9375 106.281 52.3125ZM64 33.75H63.8281C80.6719 33.75 94.0781 47.3281 94.0781 64V68.2969C94.0781 73.4531 93.9062 78.6094 93.2188 83.7656C93.0469 85.1406 91.8438 86 90.4688 86C88.75 86 87.5469 84.625 87.7188 82.9062C88.4062 78.0938 88.75 73.2812 88.75 68.2969V64C88.75 50.4219 77.5781 39.25 64 39.25C60.9062 39.25 57.9844 39.9375 55.2344 40.7969C54.2031 41.3125 52.8281 40.9688 51.9688 40.1094C50.7656 38.7344 51.1094 36.5 52.8281 35.9844C56.2656 34.6094 60.0469 33.75 64 33.75ZM44.9219 44.5781C45.7812 45.6094 45.7812 47.3281 44.75 48.3594C41.3125 52.6562 39.25 58.1562 39.25 64V68.2969C39.25 73.625 38.5625 78.9531 37.1875 84.1094C36.8438 85.3125 35.8125 86 34.6094 86C32.7188 86 31.5156 84.2812 31.8594 82.5625C33.0625 77.9219 33.75 73.1094 33.75 68.2969V64C33.75 56.6094 36.3281 49.7344 40.9688 44.4062C42 43.2031 43.8906 43.375 44.9219 44.5781ZM64 47.5C73.1094 47.5 80.5 54.8906 80.5 64V68.2969C80.5 75.5156 79.6406 82.5625 78.2656 89.4375C78.0938 90.6406 76.8906 91.5 75.6875 91.5C73.7969 91.5 72.5938 89.9531 72.9375 88.2344C74.3125 81.7031 75 75 75 68.2969V64C75 57.9844 70.0156 53 64 53C57.8125 53 53 57.9844 53 64V68.2969C53 75.5156 51.9688 82.7344 49.9062 89.6094C49.5625 90.8125 48.5312 91.5 47.3281 91.5C45.4375 91.5 44.2344 89.7812 44.75 87.8906C46.4688 81.5312 47.5 75 47.5 68.2969V64C47.5 54.8906 54.8906 47.5 64 47.5ZM66.75 64V68.2969C66.75 79.4688 64.6875 90.4688 60.5625 100.953L59.5312 103.531C59.0156 105.078 57.4688 105.766 56.0938 105.078C54.5469 104.562 53.8594 103.016 54.5469 101.641L55.4062 98.8906C59.1875 89.2656 61.25 78.7812 61.25 68.2969V64C61.25 62.625 62.4531 61.25 64 61.25C65.375 61.25 66.75 62.625 66.75 64Z" fill="black"/>
</g>
<defs>
<clipPath id="clip0_222_2">
<rect width="128" height="128" fill="white"/>
</clipPath>
</defs>
</svg>
