<svg viewBox="0 0 128 128" xmlns="http://www.w3.org/2000/svg">
  <path
    d="m62.5 43.9375-34.5 28.5v30.5625c0 1.688 1.3125 3 3 3h21c1.5 0 2.8125-1.312 2.8125-3v-18c0-1.5 1.5-3 3-3h12c1.6875 0 3 1.5 3 3v18c0 1.688 1.5 3 3 3h21.1875c1.5 0 3-1.312 3-3v-30.75l-34.6875-28.3125c-.375-.375-.9375-.5625-1.3125-.5625-.5625 0-1.125.1875-1.5.5625zm54.562 19.3125-15.562-12.9375v-25.875c0-1.3125-1.125-2.25-2.25-2.25h-10.5c-1.3125 0-2.25.9375-2.25 2.25v13.5l-16.875-13.875c-1.3125-1.125-3.9375-1.875-5.8125-1.875-1.6875 0-4.3125.75-5.625 1.875l-47.4375 39.1875c-.5625.375-.9375 1.125-.9375 1.6875s.375 1.125.5625 1.5l4.875 5.8125c.375.375 1.125.75 1.6875.75.375 0 1.125-.1875 1.5-.5625l44.0625-36.1875c.375-.375.9375-.5625 1.5-.5625.375 0 .9375.1875 1.3125.5625l44.0625 36.1875c.375.375 1.125.5625 1.5.5625.563 0 1.313-.375 1.687-.75l4.876-5.8125c.187-.375.562-.9375.562-1.5s-.375-1.3125-.938-1.6875z" />
  </svg>