<svg viewBox="0 0 128 128" xmlns="http://www.w3.org/2000/svg">
  <path
    d="m46 94c0-6.5625-5.4375-12-12-12-6.75 0-12 5.4375-12 12 0 6.75 5.25 12 12 12 6.5625 0 12-5.25 12-12zm32.8125 9c-1.5-29.0625-24.75-52.3125-53.8125-53.8125-1.6875-.1875-3 1.3125-3 3v9c0 1.5 1.125 2.8125 2.625 3 21 1.3125 37.875 18.1875 39.1875 39.1875.1875 1.5 1.5 2.625 3 2.625h9c1.6875 0 3.1875-1.312 3-3zm26.9995 0c-1.5-43.875-36.7495-79.3125-80.812-80.8125-1.6875-.1875-3 1.125-3 3v9c0 1.5 1.125 2.8125 2.8125 3 35.8125 1.3125 64.6875 30.1875 66 66.0005.1875 1.687 1.5 3 3 3h8.9995c1.876-.188 3.188-1.5 3-3.188z" />
  </svg>