<svg width="39" height="39" viewBox="0 0 39 39" fill="none" xmlns="http://www.w3.org/2000/svg">
<path d="M21.0603 10.4324C21.134 10.4602 21.208 10.4729 21.282 10.4707C21.4741 10.4707 21.6836 10.3577 21.9097 10.1313L22.3679 9.6731C22.583 9.45825 22.699 9.26294 22.7158 9.08765C22.7197 9.05811 22.7209 9.02881 22.7192 8.99951C22.7185 8.98584 22.717 8.97217 22.7151 8.9585C22.7131 8.94531 22.7107 8.93237 22.7075 8.91943C22.7002 8.88867 22.6897 8.85791 22.6763 8.82739C22.6619 8.79468 22.6438 8.76196 22.6223 8.72949C22.5906 8.68164 22.551 8.63428 22.5037 8.58691L22.0796 8.16284L20.3823 9.85986L20.7219 10.1992C20.8347 10.312 20.9475 10.3899 21.0603 10.4324Z" fill="#0A4F32"/>
<path fill-rule="evenodd" clip-rule="evenodd" d="M0.375732 0L38.75 38.3743V19.4592L19.2908 0H0.375732ZM21.9946 6.38086L23.3777 7.76392C23.8586 8.24487 24.0962 8.70874 24.0906 9.15552C24.0906 9.30542 24.0637 9.45679 24.01 9.60938C23.906 9.90576 23.7009 10.207 23.3948 10.5132L23.0298 10.8782C22.4133 11.4946 21.8193 11.6814 21.2478 11.438L21.231 11.4551C21.2478 11.4863 21.2632 11.5178 21.2769 11.5493C21.2864 11.5713 21.2952 11.5933 21.3032 11.6152C21.3093 11.6313 21.3147 11.6475 21.3198 11.6636C21.3911 11.8894 21.3811 12.1167 21.2903 12.3459C21.1772 12.6514 20.9453 12.9795 20.5945 13.3303L19.5508 14.374C19.3811 14.5437 19.2483 14.688 19.1521 14.8066C19.0615 14.9199 18.988 15.05 18.9314 15.197L17.9812 14.2468C18.0432 14.1167 18.1111 14.0034 18.1848 13.9072C18.2583 13.811 18.4053 13.6528 18.626 13.4321L19.7122 12.3459C19.9836 12.0745 20.1279 11.8398 20.1448 11.6418C20.1484 11.6106 20.1489 11.5791 20.1462 11.5471C20.1399 11.4673 20.1138 11.3857 20.0681 11.3022C20.0195 11.2139 19.949 11.1235 19.8564 11.0308L19.5339 10.7083L16.9883 13.2539L16.0549 12.3206L21.9946 6.38086ZM22.7302 13.9387L25.0127 9.39893L26.0056 10.3918L24.4612 13.209L24.4783 13.2258L27.2954 11.6816L28.2034 12.5896L23.6636 14.8721L21.135 17.4006L20.2017 16.4673L22.7302 13.9387ZM31.1694 15.5557L28.6238 13.01L22.6841 18.9497L25.2297 21.4952L26.0781 20.6467L24.4661 19.0344L26.2903 17.2102L27.5715 18.4915L28.4202 17.6431L27.1389 16.3616L28.7085 14.792L30.3208 16.4041L31.1694 15.5557Z" fill="#0A4F32"/>
</svg>
