<svg viewBox="0 0 128 128" xmlns="http://www.w3.org/2000/svg">
  <clipPath id="a">
    <path d="m0 0h128v128h-128z" />
  </clipPath>
  <g clip-path="url(#a)">
    <path
      d="m111.625 99.625-13.6875-54.75c-.75-2.8125-3.1875-4.6875-5.8125-4.6875h-11.25c.5625-2.0625 1.125-3.9375 1.125-6 0-10.125-8.0625-18-18-18-10.125 0-18 7.875-18 18 0 2.0625.375 3.9375.9375 6h-11.25c-2.625 0-5.0625 1.875-5.8125 4.6875l-13.6875 54.75c-1.5 6.375 2.8125 12.375 8.8125 12.375h77.812c6 0 10.313-6 8.813-12.375zm-47.625-59.625c-3.375 0-6-2.625-6-6 0-3.1875 2.625-6 6-6 3.1875 0 6 2.8125 6 6 0 3.375-2.8125 6-6 6z" />
  </g>
</svg>