<svg viewBox="0 0 128 128" width="128" xmlns="http://www.w3.org/2000/svg">
  <clipPath id="a">
    <path d="m0 0h128v128h-128z" />
  </clipPath>
  <g clip-path="url(#a)">
    <path
      d="m107.312 75.25-8.062-4.5c.938-4.5.938-8.8125 0-13.3125l8.062-4.5c.938-.5625 1.313-1.6875.938-2.625-2.062-6.75-5.625-12.75-10.125-17.8125-.75-.75-1.875-.9375-2.8125-.375l-8.0625 4.5c-3.375-2.8125-7.125-5.0625-11.25-6.5625v-9.1875c0-.9375-.75-1.875-1.875-2.0625-6.9375-1.6875-13.875-1.5-20.4375 0-1.125.1875-1.6875 1.125-1.6875 2.0625v9.1875c-4.3125 1.5-8.0625 3.75-11.4375 6.75l-8.0625-4.6875c-.9375-.5625-2.0625-.375-2.8125.375-4.5 5.0625-8.0625 11.0625-10.125 17.8125-.375.9375 0 2.0625.9375 2.625l8.0625 4.5c-.75 4.5-.75 8.8125 0 13.3125l-8.0625 4.5c-.9375.5625-1.3125 1.6875-.9375 2.625 2.0625 6.75 5.625 12.75 10.125 17.8125.75.75 1.875.9375 2.8125.375l8.0625-4.5c3.375 2.8125 7.125 5.0625 11.4375 6.5625v9.187c0 .938.75 1.876 1.6875 2.25 6.9375 1.5 13.875 1.313 20.4375 0 1.125-.374 1.875-1.312 1.875-2.25v-9.187c4.125-1.5 7.875-3.75 11.25-6.5625l8.0625 4.5c.9375.5625 2.0625.375 2.8125-.375 4.687-5.0625 8.063-11.0625 10.313-17.8125.187-.9375-.188-2.0625-1.126-2.625zm-43.312 3.75c-8.4375 0-15-6.5625-15-15 0-8.25 6.5625-15 15-15 8.25 0 15 6.75 15 15 0 8.4375-6.75 15-15 15z" />
  </g>
</svg>