<?xml version="1.0" encoding="utf-8"?>
<!-- Generator: Adobe Illustrator 25.4.1, SVG Export Plug-In . SVG Version: 6.00 Build 0)  -->
<svg version="1.1" id="Layer_1" xmlns="http://www.w3.org/2000/svg" xmlns:xlink="http://www.w3.org/1999/xlink" x="0px" y="0px"
	 viewBox="0 0 756.6 132.8" style="enable-background:new 0 0 756.6 132.8;" xml:space="preserve">
<style type="text/css">
	.st0{fill:#FFFFFF;}
	.st1{fill:url(#SVGID_1_);}
</style>
<g>
	<path class="st0" d="M689.8,75.3c0-10.1,7.6-17.7,17.4-17.7c9.9,0,17.4,7.6,17.4,17.7c0,10.1-7.6,17.7-17.4,17.7
		C697.5,93,689.8,85.4,689.8,75.3L689.8,75.3z M683.8,75.3c0,12.4,9.2,23.3,23.4,23.3c14.3,0,23.5-10.9,23.5-23.3
		s-9.2-23.3-23.5-23.3C693,51.9,683.8,62.9,683.8,75.3L683.8,75.3z M670.5,97.4h6.1V53.2h-6.1V97.4z M670.5,45h6.1v-8.5h-6.1V45z
		 M621.6,75.2c0-9.9,7.5-17.7,17.7-17.7c4.9,0,9.4,1.9,12.5,5.1c3.2,3.1,5.1,7.4,5.1,12.4c0.2,4.9-1.7,9.5-4.9,12.7
		c-3.1,3.2-7.6,5.2-12.6,5.2C627.8,93,621.6,84.2,621.6,75.2L621.6,75.2z M662.5,36.6h-6.1v16.2v9.4c-2-4.6-8.4-10.2-18.1-10.2
		c-13.2,0-22.8,10.1-22.8,23.3c0,12.4,8.7,23.4,22.9,23.4c9.2,0,15.1-4.5,18.3-10.4v9.1h5.8V36.6z M610.2,53.2h-6.1v25
		c0,9.2-5.3,14.7-14.5,14.8c-9.9,0.1-14.2-6.3-14.2-15.9V53.2h-6v25.1c0,10.8,4.8,20.1,18.7,20.4c7.9,0.1,13.9-3.4,16.4-9.1v7.9h5.8
		V53.2z M549,97.4h6V58h9.7v-4.9H555V36.6h-6v16.6h-8.7V58h8.7V97.4z M500.2,80.5c0.4,11.6,8.9,18,19.1,18
		c11.3,0,18.8-7.9,18.8-17.8c0-11.2-9-14.4-14.8-16.6c-9.2-3.1-15.2-4.9-15.1-12.3c0-6.3,5-10.4,11.1-10.4c8.1,0,10,6,10.8,9.9h6.7
		c-1-11.5-9.7-15.7-17.3-15.7c-9.3,0-18.3,6-18.1,16.8c0,11.5,10.6,14.6,15.5,16.1c7.1,2.3,14.4,4.2,14.4,12.7
		c0,6.7-5.8,11.6-12.2,11.6c-3.8,0-11.2-2.1-12.2-12.3H500.2z M453.6,97.4h6V73.3c0-10,4.8-15.4,13.3-15.4h0.6v-6
		c-5.2,0.2-10.9,1.9-14.1,8.5v-7.2h-5.8V97.4z M406.6,72.2c0.6-8.1,7.6-15,17.2-15c9.1-0.2,16.6,7.3,17,15H406.6z M446.8,77
		c0.7-7.1-1.8-13.9-6.9-18.8c-4.2-4-9.9-6.2-16.2-6.2c-13.2,0-23.3,10.4-23.3,23.4c0,11,8,23.3,23.3,23.3c4.5,0,8.9-1.2,12.6-3.6
		c3.8-2.4,6.9-6,9-10.8h-6.3c-2.9,5.8-8.4,9.1-15.2,9.1c-7.5,0.1-16.9-5.3-17.3-16.4H446.8z M353.2,97.4h6.1V72.3
		c0-4,1.1-7.6,3.5-10.3c2.3-2.6,5.9-4.4,10.8-4.4c5.3,0,8.7,1.6,11.1,4.5c2.2,2.9,3.2,6.9,3.2,11.7v23.6h6V73.6
		c0-6.3-1.2-11.7-4.2-15.5c-3-3.9-7.6-6.1-14.6-6.1c-6.2-0.2-13.1,2.6-15.8,8.5v-7.6V36.6h-6.1V97.4z M339.9,82.4
		c-1.9,5.3-7.6,10.4-16,10.5c-9.5,0-17.4-7.2-17.4-17.7c0-5.1,2.1-9.9,5-12.7c3.7-3.5,7.3-5,12.5-5c6.2,0,13.2,3.5,16,10.9h6.2
		c-3-10.6-12.6-16.5-22.5-16.5c-13.4,0-23.3,10.3-23.3,23.3c0,11.8,8.8,23.4,23.8,23.4c10.6,0,19.2-6.8,22.1-16.2H339.9z
		 M284.7,97.4h6V58h9.7v-4.9h-9.7V36.6h-6v16.6H276V58h8.7V97.4z M265.4,97.4h6.1V53.2h-6.1V97.4z M265.4,45h6.1v-8.5h-6.1V45z
		 M212.6,97.4h5.9l10.3-32.2l10.4,32.2h6l15.3-44.2h-6.3l-12.1,36.4l-10.7-32.5h-5l-10.6,32.5l-12.2-36.4h-6.4L212.6,97.4z
		 M157.4,80.5c0.4,11.6,8.9,18,19.1,18c11.3,0,18.8-7.9,18.8-17.8c0-11.2-9-14.4-14.8-16.6c-9.2-3.1-15.2-4.9-15.1-12.3
		c0-6.3,5-10.4,11.1-10.4c8.1,0,10,6,10.8,9.9h6.7c-1-11.5-9.7-15.7-17.3-15.7c-9.3,0-18.3,6-18.1,16.8c0,11.5,10.6,14.6,15.5,16.1
		c7.1,2.3,14.4,4.2,14.4,12.7c0,6.7-5.8,11.6-12.2,11.6c-3.8,0-11.2-2.1-12.2-12.3H157.4z"/>
	<g>
		<path class="st0" d="M746.6,40.9c5.6,0,10,4.6,10,10.1c0,5.6-4.5,10.1-10,10.1c-5.6,0-10.1-4.4-10.1-10.1
			C736.4,45.5,740.8,40.9,746.6,40.9L746.6,40.9z M746.5,42.3c-4.9,0-8.5,4-8.5,8.7c0,4.8,3.8,8.7,8.6,8.7c4.7,0,8.5-3.8,8.5-8.7
			C755,46.3,751.4,42.3,746.5,42.3L746.5,42.3z M747,45.2c1.5,0,4.1,0.5,4.1,3.2c0,1.1-0.4,2.1-2,2.8c1.2,0.4,1.7,1.1,1.8,2.6
			c0.1,2.1,0.1,2.3,0.3,2.9h-1.8c-0.2-0.3-0.3-1.5-0.3-2.7c-0.1-1.1-0.3-2.1-2.7-2.1h-2.3v4.8h-1.9V45.2H747z M744.1,46.6v4h2.4
			c0.7,0,2.7,0,2.7-2.1c0-1.9-1.8-1.9-2.5-1.9H744.1z"/>
	</g>
</g>
<g>
	<linearGradient id="SVGID_1_" gradientUnits="userSpaceOnUse" x1="0" y1="66.3795" x2="129.2284" y2="66.3795">
		<stop  offset="0" style="stop-color:#EB5724"/>
		<stop  offset="0.2576" style="stop-color:#EC5C23"/>
		<stop  offset="0.5721" style="stop-color:#EF6B22"/>
		<stop  offset="0.915" style="stop-color:#F48420"/>
		<stop  offset="0.9995" style="stop-color:#F58B1F"/>
	</linearGradient>
	<path class="st1" d="M129.1,63.9c-0.1-1.3-0.2-2.5-0.4-3.7c-0.2-1.2-0.5-2.5-0.8-3.7c-0.3-1.2-0.7-2.4-1.1-3.6
		c-0.4-1.2-0.9-2.3-1.5-3.5c-0.6-1.1-1.2-2.3-1.8-3.3c-0.7-1.1-1.4-2.1-2.2-3.2c-0.8-1-1.6-2-2.5-3c-0.9-1-1.8-1.9-2.8-2.7
		c-1-0.9-2-1.7-3.1-2.5c-1.1-0.8-2.2-1.5-3.4-2.2c-1.2-0.7-2.4-1.3-3.6-1.8c-0.5-0.2-1-0.5-1.6-0.7c-0.7-2.4-1.6-4.8-2.7-7.1
		c-1.2-2.4-2.6-4.7-4.2-6.8c-1.6-2.2-3.5-4.2-5.5-5.9c-2.1-1.8-4.3-3.5-6.7-4.8C83,4.1,80.5,3,77.8,2.1c-2.6-0.9-5.2-1.5-7.9-1.8
		C67.3,0,64.7-0.1,62,0.1c-2.6,0.2-5.2,0.6-7.8,1.3c-2.5,0.7-5,1.6-7.4,2.7c-2.4,1.2-4.7,2.6-6.8,4.2c-2.2,1.6-4.2,3.5-5.9,5.5
		c-1.8,2.1-3.5,4.3-4.8,6.7c-1.4,2.4-2.5,4.9-3.4,7.6c-0.1,0.4-0.3,0.8-0.4,1.2c0,0,0,0,0,0c-1.2,0.4-2.3,0.9-3.5,1.5
		c-1.1,0.6-2.3,1.2-3.3,1.8c-1.1,0.7-2.1,1.4-3.2,2.2c-1,0.8-2,1.6-3,2.5c-1,0.9-1.9,1.8-2.7,2.8c-0.9,1-1.7,2-2.5,3.1
		c-0.8,1.1-1.5,2.2-2.2,3.4C4.6,47.6,4,48.8,3.4,50c-0.5,1.2-1,2.4-1.4,3.7c-0.4,1.2-0.8,2.5-1,3.8c-0.3,1.3-0.5,2.5-0.7,3.8
		C0.1,62.5,0,63.8,0,65.1c0,1.3,0,2.5,0.1,3.8c0.1,1.2,0.2,2.5,0.4,3.7c0.2,1.2,0.5,2.5,0.8,3.7c0.3,1.2,0.7,2.4,1.1,3.6
		C2.9,81,3.4,82.2,4,83.3c0.6,1.1,1.2,2.3,1.8,3.3c0.7,1.1,1.4,2.1,2.2,3.2c0.8,1,1.6,2,2.5,3c0.9,1,1.8,1.9,2.8,2.7
		c1,0.9,2,1.7,3.1,2.5c1.1,0.8,2.2,1.5,3.4,2.2c1.1,0.7,2.3,1.3,3.6,1.8c0.5,0.2,1,0.5,1.6,0.7c0.7,2.4,1.6,4.8,2.7,7.1
		c1.2,2.4,2.6,4.7,4.1,6.8c1.6,2.2,3.5,4.2,5.5,5.9c2.1,1.8,4.3,3.5,6.7,4.8c2.4,1.4,4.9,2.5,7.6,3.4c2.6,0.9,5.2,1.5,7.9,1.8
		c1.7,0.2,3.4,0.3,5,0.3c1,0,1.9,0,2.9-0.1c2.6-0.2,5.2-0.6,7.7-1.3c2.5-0.7,5-1.6,7.4-2.8c2.4-1.2,4.7-2.6,6.8-4.2
		c2.2-1.6,4.2-3.5,5.9-5.5c1.8-2.1,3.5-4.3,4.8-6.7c1.4-2.4,2.5-4.9,3.4-7.6c0.1-0.4,0.3-0.8,0.4-1.2c0,0,0,0,0,0
		c1.2-0.4,2.3-0.9,3.5-1.5c1.1-0.6,2.2-1.2,3.3-1.8c1.1-0.7,2.1-1.4,3.2-2.1c1-0.8,2-1.6,3-2.5c1-0.9,1.9-1.8,2.7-2.8
		c0.9-1,1.7-2,2.5-3.1c0.8-1.1,1.5-2.2,2.2-3.4c0.7-1.2,1.3-2.4,1.8-3.6c0.5-1.2,1-2.4,1.4-3.7c0.4-1.2,0.8-2.5,1-3.8
		c0.3-1.2,0.5-2.5,0.7-3.8c0.2-1.3,0.3-2.5,0.3-3.8C129.2,66.4,129.2,65.2,129.1,63.9z"/>
	<path class="st0" d="M90.8,84.6c-0.5-1.7-1.1-3.3-1.8-4.9c-0.8-1.6-1.7-3.1-2.8-4.5c-1.1-1.4-2.3-2.8-3.7-4
		C81.1,70,79.6,68.9,78,68L56.5,55.6c-1-0.6-1.9-1.2-2.8-2c-0.8-0.7-1.6-1.5-2.2-2.4c-0.7-0.9-1.2-1.8-1.7-2.8c-0.5-1-0.8-2-1.1-3
		c-0.3-1-0.5-2.1-0.5-3.2c-0.1-1.1,0-2.2,0.1-3.2c0.1-1.1,0.4-2.2,0.7-3.2c0.4-1.1,0.8-2.1,1.4-3.1c0.6-1,1.2-1.9,2-2.8
		c0.7-0.8,1.5-1.6,2.4-2.2c0.9-0.7,1.8-1.2,2.8-1.7c1-0.5,2-0.8,3-1.1c1-0.3,2.1-0.5,3.2-0.5c1.1-0.1,2.2,0,3.2,0.1
		c1.1,0.1,2.2,0.4,3.2,0.7c1.1,0.4,2.1,0.8,3.1,1.4c1,0.6,1.9,1.2,2.8,2c0.8,0.7,1.6,1.5,2.2,2.4c0.6,0.9,1.2,1.8,1.7,2.8
		c0.3,0.5,0.5,1.1,0.7,1.7c0.3-0.1,0.6-0.2,0.8-0.2c2-0.5,4.1-0.9,6.2-1c1.2-0.1,2.4-0.1,3.7,0c0,0,0,0,0-0.1
		c-0.5-1.7-1.1-3.3-1.8-4.9c-0.8-1.6-1.7-3.1-2.8-4.5c-1.1-1.4-2.3-2.8-3.7-4c-1.4-1.2-2.9-2.3-4.5-3.2c-1.6-0.9-3.3-1.7-5-2.3
		c-1.7-0.6-3.5-1-5.3-1.2c-1.7-0.2-3.5-0.3-5.3-0.1c-1.7,0.1-3.5,0.4-5.2,0.9c-1.7,0.5-3.3,1.1-4.9,1.8c-1.6,0.8-3.1,1.7-4.5,2.8
		c-1.4,1.1-2.8,2.3-4,3.7c-1.2,1.4-2.3,2.9-3.2,4.5c-0.9,1.6-1.7,3.3-2.3,5c-0.6,1.7-1,3.5-1.2,5.3c-0.2,1.7-0.3,3.5-0.1,5.3
		c0.1,1.7,0.4,3.5,0.9,5.2c0.5,1.7,1.1,3.3,1.8,4.9c0.8,1.6,1.7,3.1,2.8,4.5c1.1,1.4,2.3,2.8,3.7,4c1.4,1.2,2.9,2.3,4.5,3.2
		l21.5,12.4c1,0.6,1.9,1.2,2.8,2c0.8,0.7,1.6,1.5,2.2,2.4c0.6,0.9,1.2,1.8,1.7,2.8c0.5,1,0.9,2,1.1,3c0.3,1,0.5,2.1,0.5,3.2
		c0.1,1.1,0,2.2-0.1,3.2c-0.1,1.1-0.4,2.2-0.7,3.2c-0.4,1.1-0.8,2.1-1.4,3.1c-0.6,1-1.2,1.9-2,2.8c-0.7,0.8-1.5,1.6-2.4,2.2
		c-0.9,0.6-1.8,1.2-2.8,1.7c-1,0.5-2,0.8-3,1.1c-1,0.3-2.1,0.5-3.2,0.5c-1.1,0.1-2.2,0-3.2-0.1c-1.1-0.1-2.2-0.4-3.2-0.7
		c-1.1-0.4-2.1-0.8-3.1-1.4c-1-0.6-1.9-1.2-2.8-2c-0.8-0.7-1.6-1.5-2.2-2.4c-0.7-0.9-1.2-1.8-1.7-2.8c-0.3-0.5-0.5-1.1-0.7-1.7
		c-0.3,0.1-0.6,0.2-0.8,0.2c-2,0.5-4.1,0.9-6.2,1c-0.8,0.1-1.5,0.1-2.3,0.1c-0.5,0-0.9,0-1.4,0c0,0,0,0,0,0c0.5,1.7,1.1,3.3,1.8,4.9
		c0.8,1.6,1.7,3.1,2.8,4.5c1.1,1.4,2.3,2.8,3.7,4c1.4,1.2,2.9,2.3,4.5,3.2c1.6,0.9,3.3,1.7,5.1,2.3c1.7,0.6,3.5,1,5.3,1.2
		c1.1,0.1,2.2,0.2,3.4,0.2c0.6,0,1.3,0,1.9-0.1c1.7-0.1,3.5-0.4,5.2-0.9c1.7-0.5,3.3-1.1,4.9-1.8c1.6-0.8,3.1-1.7,4.5-2.8
		c1.4-1.1,2.8-2.3,4-3.7c1.2-1.4,2.3-2.9,3.2-4.5c0.9-1.6,1.7-3.3,2.3-5c0.6-1.7,1-3.5,1.2-5.3c0.2-1.7,0.3-3.5,0.1-5.3
		C91.5,88.1,91.2,86.3,90.8,84.6z"/>
	<path class="st0" d="M41.2,93.4c1.7-0.1,3.5-0.4,5.2-0.9c1.7-0.5,3.3-1.1,4.9-1.8c1.6-0.8,3.1-1.7,4.5-2.8c1.4-1.1,2.8-2.3,4-3.7
		c1.2-1.4,2.3-2.9,3.2-4.5l0.9-1.6l-9.2-5.3l-0.9,1.6c-0.6,1-1.2,1.9-2,2.8c-0.7,0.8-1.5,1.6-2.4,2.2c-0.9,0.7-1.8,1.2-2.8,1.7
		c-1,0.5-2,0.8-3,1.1c-1,0.3-2.1,0.5-3.2,0.5c-1.1,0.1-2.2,0-3.2-0.1C36.1,82.6,35,82.4,34,82c-1.1-0.4-2.1-0.8-3.1-1.4
		c-1-0.6-1.9-1.2-2.8-2c-0.8-0.7-1.6-1.5-2.2-2.4c-0.7-0.9-1.2-1.8-1.7-2.8c-0.5-1-0.8-2-1.1-3c-0.3-1-0.5-2.1-0.5-3.2
		c-0.1-1.1,0-2.2,0.1-3.2c0.1-1.1,0.4-2.2,0.7-3.2c0.4-1.1,0.8-2.1,1.4-3.1c0.6-1,1.2-1.9,2-2.8c0.7-0.8,1.5-1.6,2.4-2.2
		c0.9-0.7,1.8-1.2,2.8-1.7c0.5-0.3,1.1-0.5,1.7-0.7c-0.1-0.3-0.2-0.6-0.2-0.8c-0.5-2-0.9-4.1-1-6.2c-0.1-1.2-0.1-2.4,0-3.7
		c0,0,0,0-0.1,0c-1.7,0.5-3.3,1.1-4.9,1.8c-1.6,0.8-3.1,1.7-4.5,2.8c-1.4,1.1-2.8,2.3-4,3.7c-1.2,1.4-2.3,2.9-3.2,4.5
		c-0.9,1.6-1.7,3.3-2.3,5c-0.6,1.7-1,3.5-1.2,5.3c-0.2,1.7-0.3,3.5-0.1,5.3c0.1,1.7,0.4,3.5,0.9,5.2c0.5,1.7,1.1,3.3,1.8,4.9
		c0.8,1.6,1.7,3.1,2.8,4.5c1.1,1.4,2.3,2.8,3.7,4c1.4,1.2,2.9,2.3,4.5,3.2c1.6,0.9,3.3,1.7,5,2.3c1.7,0.6,3.5,1,5.3,1.2
		C37.7,93.5,39.4,93.5,41.2,93.4z"/>
	<path class="st0" d="M117.2,64.7c-0.1-1.7-0.4-3.5-0.9-5.2c-0.5-1.7-1.1-3.3-1.8-4.9c-0.8-1.6-1.7-3.1-2.8-4.5
		c-1.1-1.4-2.3-2.8-3.7-4c-1.4-1.2-2.9-2.3-4.5-3.2c-1.6-0.9-3.3-1.7-5-2.3c-1.7-0.6-3.5-1-5.3-1.2c-1.7-0.2-3.5-0.3-5.3-0.1
		c-1.7,0.1-3.5,0.4-5.2,0.9c-1.7,0.5-3.3,1.1-4.9,1.8c-1.6,0.8-3.1,1.7-4.5,2.8c-1.4,1.1-2.8,2.3-4,3.7c-1.2,1.4-2.3,2.9-3.2,4.5
		l-0.9,1.6l9.2,5.3l0.9-1.6c0.6-1,1.2-1.9,2-2.8c0.7-0.8,1.5-1.6,2.4-2.2c0.9-0.6,1.8-1.2,2.8-1.7c1-0.5,2-0.8,3-1.1
		c1-0.3,2.1-0.5,3.2-0.5c1.1-0.1,2.2,0,3.2,0.1c1.1,0.1,2.2,0.4,3.2,0.7c1.1,0.4,2.1,0.8,3.1,1.4c1,0.6,1.9,1.2,2.8,2
		c0.8,0.7,1.6,1.5,2.2,2.4c0.7,0.9,1.2,1.8,1.7,2.8c0.5,1,0.8,2,1.1,3c0.3,1,0.5,2.1,0.5,3.2c0.1,1.1,0,2.2-0.1,3.2
		c-0.1,1.1-0.4,2.2-0.7,3.2c-0.4,1.1-0.8,2.1-1.4,3.1c-0.6,1-1.2,1.9-2,2.8c-0.7,0.8-1.5,1.6-2.4,2.2c-0.9,0.6-1.8,1.2-2.8,1.7
		c-0.5,0.3-1.1,0.5-1.7,0.7c0.1,0.3,0.2,0.6,0.2,0.8c0.5,2,0.9,4.1,1,6.2c0.1,1.2,0.1,2.4,0,3.7c0,0,0,0,0.1,0
		c1.7-0.5,3.3-1.1,4.9-1.8c1.6-0.8,3.1-1.7,4.5-2.8c1.4-1.1,2.8-2.3,4-3.7c1.2-1.4,2.3-2.9,3.2-4.5c0.9-1.6,1.7-3.3,2.3-5
		c0.6-1.7,1-3.5,1.2-5.3C117.3,68.3,117.4,66.5,117.2,64.7z"/>
</g>
</svg>
